<?xml version="1.0" encoding="UTF-8" standalone="no"?>
<svg
   xmlns:dc="http://purl.org/dc/elements/1.1/"
   xmlns:cc="http://creativecommons.org/ns#"
   xmlns:rdf="http://www.w3.org/1999/02/22-rdf-syntax-ns#"
   xmlns:svg="http://www.w3.org/2000/svg"
   xmlns="http://www.w3.org/2000/svg"
   id="svg6961"
   version="1.1"
   viewBox="0 0 210 297"
   height="297mm"
   width="210mm">
  <defs
     id="defs6955">
    <rect
       id="rect12"
       height="75.786346"
       width="344.79984"
       y="-207.06793"
       x="-73.440788" />
    <rect
       id="rect6923"
       height="75.786346"
       width="344.79984"
       y="-207.06793"
       x="-73.440788" />
    <rect
       x="-73.440788"
       y="-207.06793"
       width="344.79984"
       height="75.786346"
       id="rect12-3" />
    <rect
       x="-73.440788"
       y="-207.06793"
       width="344.79984"
       height="75.786346"
       id="rect6926" />
  </defs>
  <metadata
     id="metadata6958">
    <rdf:RDF>
      <cc:Work
         rdf:about="">
        <dc:format>image/svg+xml</dc:format>
        <dc:type
           rdf:resource="http://purl.org/dc/dcmitype/StillImage" />
        <dc:title></dc:title>
      </cc:Work>
    </rdf:RDF>
  </metadata>
  <g
     id="layer1">
    <g
       id="g6830"
       transform="matrix(-0.08972751,0.0436954,-0.04897021,-0.13735429,341.67603,212.30984)"
       style="fill:#f6f255;fill-opacity:1">
      <path
         d="m 1484.34,1278.42 c 1.55,-3.35 2.21,-6.85 3.54,-10.24 38.91,22.92 78.7,45.57 119.4,67.95 11.24,37.99 27.56,74.57 48.28,108.96 -71.67,-37.66 -140.62,-76.33 -207.29,-115.67 14.61,-14.68 27.1,-31.64 36.07,-51"
         style="fill:#f6f255;fill-opacity:1;fill-rule:nonzero;stroke:none"
         id="path6832" />
      <path
         d="m 2913.93,1277.59 c 45.96,32.04 89.32,64.07 129.51,95.82 26.8,21.16 52.2,42.21 76.02,63.04 35.73,31.25 67.92,62.02 96.01,92.05 18.72,20.02 35.62,39.7 50.53,58.98 14.9,19.27 27.81,38.12 38.57,56.47 26.88,45.89 40.27,88.66 37.53,127.02 -1.09,15.34 -4.76,29.98 -11.18,43.83 -0.01,0.02 -0.03,0.05 -0.05,0.08 -3.42,7.37 -7.62,14.22 -12.36,20.69 -0.82,1.11 -1.85,2.07 -2.71,3.16 -4.27,5.45 -8.93,10.64 -14.14,15.45 -0.63,0.58 -1.35,1.09 -2,1.65 -5.84,5.21 -12.23,10.03 -19.16,14.48 -0.18,0.11 -0.37,0.21 -0.55,0.33 -109.24,69.59 -349,47.91 -635.08,-28.62 -17.82,-22.79 -40.26,-41.73 -67.26,-54.25 -24.63,-11.42 -50.81,-17.21 -77.86,-17.21 -20.49,0 -40.36,3.76 -59.2,10.16 -94.73,-31.23 -192,-66.97 -289.32,-106.12 39.78,-6.37 77.96,-17.4 113.62,-33.08 478.28,183.44 845.89,238.28 964.43,176.32 3.92,-2.05 7.52,-4.25 10.92,-6.54 0.64,-0.44 1.27,-0.89 1.89,-1.34 2.86,-2.03 5.53,-4.16 7.97,-6.39 1.27,-1.18 2.41,-2.43 3.56,-3.66 1.66,-1.75 3.35,-3.47 4.75,-5.32 2.5,-3.32 4.73,-6.77 6.43,-10.43 16.96,-36.59 -4.74,-92.52 -60.52,-161.34 -12.4,-15.3 -26.48,-31.23 -42.19,-47.73 -15.71,-16.5 -33.05,-33.57 -51.98,-51.13 -37.85,-35.12 -82.02,-72.23 -132.13,-110.76 -112.73,-86.68 -255.47,-180.54 -423.62,-275.13 -14.94,-8.41 -30.23,-16.82 -45.57,-25.22 -33.26,-18.24 -67.52,-36.48 -102.6,-54.68 7.48,13.78 14.44,27.87 20.29,42.56 38.41,96.56 36.17,200.24 -6.33,291.95 -61.19,132.11 -193.84,214.18 -346.12,214.18 -60.4,0 -119.31,-13.09 -175.04,-38.93 -199.69,-92.56 -290.79,-321.77 -203.13,-510.96 49.99,-107.798 147.83,-181.4 264.75,-205.161 -35.49,-14.52 -70.82,-28.649 -105.81,-42.047 -1.33,-0.512 -2.63,-0.981 -3.96,-1.492 -85.29,-32.598 -168.82,-61.84 -249.19,-87.18 -117.12,-36.942 -227.39,-65.512 -326.99,-84.66 v 0 c -21.86,-4.2 -43.39,-8.121 -64.17,-11.379 -4.21,-0.672 -7.96,-2.352 -11.51,-4.281 -16.49,25.71 -44.55,42.359 -75.6,42.359 -13.16,0 -25.96,-2.82 -37.97,-8.41 -21.88,-10.141 -38.51,-28.25 -46.87,-50.981 -8.32,-22.718 -7.34,-47.316 2.82,-69.207 20.33,-43.82 75.95,-64.609 120.14,-44.051 21.95,10.161 38.62,28.258 46.98,50.969 1.43,3.93 2.22,7.961 3.09,11.981 1.54,-0.2 2.95,-0.821 4.52,-0.821 1.89,0 3.8,0.141 5.72,0.442 21.17,3.328 43.09,7.308 65.35,11.578 195.8,37.582 431.86,111.051 677.98,210.371 69.24,27.93 139.22,57.922 209.35,89.719 14.36,4.871 28.54,10.551 42.53,17.043 13.31,6.168 26.09,13.09 38.53,20.476 69.16,32.75 137.89,67.121 205.3,102.672 126.18,66.56 247.63,137.14 357.86,208.68 32.78,21.28 64.57,42.64 95.22,64"
         style="fill:#f6f255;fill-opacity:1;fill-rule:nonzero;stroke:none"
         id="path6834" />
      <path
         d="m 964.754,612.871 c -61.18,7.309 -100.82,25.34 -113.473,52.641 -28.5,61.488 67.242,210.238 340.099,409.888 -14.46,14.61 -26.84,31.46 -35.74,50.68 -1.61,3.48 -2.37,7.17 -3.75,10.72 C 964.613,1000.12 716.375,783.25 785.16,634.859 c 24.61,-53.121 84.551,-84.609 177.426,-94.718 -4.875,24.019 -3.965,48.668 2.168,72.73"
         style="fill:#f6f255;fill-opacity:1;fill-rule:nonzero;stroke:none"
         id="path6836" />
      <path
         d="M 552.68,395.898 C 537.09,375.5 517.152,358.18 492.816,345.961 c 78.262,-47.18 193.301,-70.449 337.079,-70.449 326.105,0 796.715,117.867 1302.455,336.828 3.33,31.058 11.24,61.32 23.4,89.91 C 1396.87,364.609 783.703,286.199 552.68,395.898"
         style="fill:#f6f255;fill-opacity:1;fill-rule:nonzero;stroke:none"
         id="path6838" />
      <path
         d="m 3555.19,1937.45 c 16.22,3.78 32.81,5.79 49.7,5.79 13.09,0 25.91,-1.55 38.54,-3.81 -54.46,101.39 -192.37,155.27 -395.28,160.15 -16.56,-6.52 -33.8,-10.47 -51.66,-10.47 -17.18,0 -33.77,3.45 -49.38,9.26 -136.68,-6.53 -296.76,-31.78 -475.51,-75.56 9.08,-23.24 13.25,-47.49 12.57,-71.92 433.63,106.63 760.69,100.75 871.02,-13.44"
         style="fill:#f6f255;fill-opacity:1;fill-rule:nonzero;stroke:none"
         id="path6840" />
      <path
         d="m 443.957,674.07 c 24.356,-4.199 47.32,-13.441 67.551,-26.941 83.269,176.16 317.043,396.881 636.812,611.401 0.65,2 0.84,4.07 1.57,6.06 16.67,45.42 50.01,81.66 93.96,102 24.05,11.16 49.69,16.82 76.08,16.82 7.66,0 15.19,-0.7 22.67,-1.65 152.83,91.64 319.57,180.22 494.94,261.51 171.43,79.45 342.86,148.07 511.13,205.91 -6.41,9.05 -12.33,18.52 -17.08,28.78 -5.73,12.34 -9.72,25.11 -12.61,38.08 -168.71,-58.23 -340.43,-127.09 -512.08,-206.65 -357.81,-165.84 -676.38,-358.68 -919.134,-548.94 -1.032,-12.88 -3.18,-25.73 -7.766,-38.2 -13.125,-35.91 -39.527,-64.59 -74.281,-80.7 -19.094,-8.85 -39.348,-13.31 -60.246,-13.31 -4.598,0 -9.09,0.55 -13.61,0.99 C 594.121,903.621 494.598,782.32 443.957,674.07"
         style="fill:#f6f255;fill-opacity:1;fill-rule:nonzero;stroke:none"
         id="path6842" />
      <path
         d="M 2145.26,484.32 C 1143.36,52.5508 228.426,-58.5508 90.207,239.641 8.40625,416.121 223.328,728.91 652.02,1062.94 c -15.293,13.12 -27.926,29.51 -36.668,48.4 -1.821,3.93 -2.778,8.06 -4.231,12.08 C 138.25,756.359 -75.8672,424.648 24.082,209 89.332,68.1992 280.949,0 557.762,0 959.516,0 1540.89,144.109 2175.63,418.16 c -5.78,9.602 -11.59,19.18 -16.36,29.481 -5.6,12.058 -10.07,24.328 -14.01,36.679"
         style="fill:#f6f255;fill-opacity:1;fill-rule:nonzero;stroke:none"
         id="path6844" />
      <path
         d="m 3151.14,1005.74 c -1.99,4.31 -3.11,8.82 -4.63,13.24 -137.93,-90.761 -286.4,-179.21 -443.12,-264 9.34,-13.781 17.9,-28.191 25.02,-43.57 3.22,-6.941 5.88,-14.031 8.57,-21.109 159.32,86.16 310.28,176.109 450.54,268.437 -15.19,12.621 -27.8,28.492 -36.38,47.002"
         style="fill:#f6f255;fill-opacity:1;fill-rule:nonzero;stroke:none"
         id="path6846" />
      <path
         d="m 3328.87,2282.36 c 8.93,-23.29 12.14,-47.98 8.36,-72.32 363.14,37.55 605.67,-17.98 669.3,-155.23 88.24,-190.38 -159.39,-528.11 -647.06,-887.88 15.62,-12.51 28.9,-28.14 37.69,-47.14 1.94,-4.18 2.95,-8.52 4.43,-12.79 525.96,387.66 776.31,751.35 671.06,978.45 -78.6,169.57 -341.8,238.65 -743.78,196.91"
         style="fill:#f6f255;fill-opacity:1;fill-rule:nonzero;stroke:none"
         id="path6848" />
      <path
         d="m 2649,2064.74 c 146.61,43.5 287.04,78.23 419.84,104.02 -0.5,1.01 -1.17,1.92 -1.64,2.95 -10.12,21.77 -13.81,45.22 -12.36,68.56 -148.71,-28.88 -306.77,-68.86 -471.92,-119.41 26,-13.16 48.66,-32.31 66.08,-56.12"
         style="fill:#f6f255;fill-opacity:1;fill-rule:nonzero;stroke:none"
         id="path6850" />
      <path
         d="m 875.48,1231.89 c 0.782,-1.67 1.098,-3.46 1.809,-5.15 263.841,180.04 573.211,354.2 899.881,505.6 179.46,83.18 359.72,157.21 537.62,221.87 -0.18,22.02 3.12,44.13 10.94,65.43 2.48,6.78 6.07,12.88 9.26,19.24 -194.41,-69.02 -391.96,-149.34 -588.46,-240.42 -331.61,-153.68 -645.78,-330.71 -913.624,-513.77 17.864,-13.81 32.75,-31.59 42.574,-52.8"
         style="fill:#f6f255;fill-opacity:1;fill-rule:nonzero;stroke:none"
         id="path6852" />
      <path
         d="m 414.496,602.789 c -14.68,0 -28.93,-3.148 -42.348,-9.367 -24.41,-11.32 -42.929,-31.481 -52.222,-56.813 -9.293,-25.328 -8.172,-52.73 3.109,-77.121 22.641,-48.816 84.735,-71.879 133.953,-49.09 50.45,23.391 72.473,83.461 49.075,133.911 -16.454,35.531 -52.399,58.48 -91.567,58.48"
         style="fill:#f6f255;fill-opacity:1;fill-rule:nonzero;stroke:none"
         id="path6854" />
      <path
         d="m 774.582,1108.76 c 16.777,7.77 29.543,21.62 35.871,38.98 6.402,17.42 5.645,36.22 -2.133,52.97 -11.351,24.46 -36.05,40.25 -62.961,40.25 -10.086,0 -19.851,-2.17 -29.074,-6.46 -16.781,-7.76 -29.512,-21.63 -35.875,-39.04 -6.398,-17.41 -5.64,-36.24 2.133,-53 15.516,-33.54 58.043,-49.42 92.039,-33.7"
         style="fill:#f6f255;fill-opacity:1;fill-rule:nonzero;stroke:none"
         id="path6856" />
      <path
         d="m 1219.47,1239.11 c -9.87,-26.89 -8.68,-55.96 3.36,-81.87 24.02,-51.83 89.73,-76.4 142.2,-52.15 53.52,24.82 76.92,88.62 52.11,142.21 -17.46,37.68 -55.62,62.04 -97.21,62.04 -15.58,0 -30.7,-3.34 -44.98,-9.94 -25.93,-12.03 -45.68,-33.44 -55.48,-60.29"
         style="fill:#f6f255;fill-opacity:1;fill-rule:nonzero;stroke:none"
         id="path6858" />
      <path
         d="m 3132.18,2255.14 c -6.25,-17.14 -5.49,-35.71 2.21,-52.29 15.3,-33.15 57.32,-48.83 90.77,-33.31 16.57,7.67 29.15,21.34 35.44,38.51 6.29,17.2 5.54,35.77 -2.13,52.33 -11.18,24.05 -35.55,39.62 -62.09,39.62 -9.95,0 -19.6,-2.13 -28.68,-6.35 -16.6,-7.68 -29.22,-21.37 -35.52,-38.51"
         style="fill:#f6f255;fill-opacity:1;fill-rule:nonzero;stroke:none"
         id="path6860" />
      <path
         d="m 3509.87,1524.24 c -22.15,10.65 -42.19,25.1 -59.71,42.42 -182.98,-217.42 -520.33,-466.96 -926.27,-684.441 30.25,-8.059 59.04,-20.321 85.38,-36.707 398.36,218.648 718.84,460.118 900.6,678.728"
         style="fill:#f6f255;fill-opacity:1;fill-rule:nonzero;stroke:none"
         id="path6862" />
      <path
         d="m 2398.78,1909.12 c 18.15,-39.18 57.79,-64.5 100.97,-64.5 16.2,0 31.9,3.47 46.69,10.34 26.98,12.5 47.44,34.74 57.68,62.61 10.2,27.88 8.93,58.07 -3.54,85.06 -18.16,39.16 -57.8,64.48 -100.98,64.48 -16.2,0 -31.89,-3.48 -46.68,-10.35 -26.98,-12.49 -47.45,-34.71 -57.68,-62.62 -10.2,-27.9 -8.97,-58.08 3.54,-85.02"
         style="fill:#f6f255;fill-opacity:1;fill-rule:nonzero;stroke:none"
         id="path6864" />
      <path
         d="m 3248.27,1118.59 c -14.9,-6.89 -26.22,-19.18 -31.89,-34.64 -5.65,-15.41 -4.96,-32.12 1.95,-47.07 13.78,-29.69 51.53,-43.81 81.73,-29.89 30.74,14.27 44.15,50.9 29.91,81.66 -13.53,29.22 -52.51,43.51 -81.7,29.94"
         style="fill:#f6f255;fill-opacity:1;fill-rule:nonzero;stroke:none"
         id="path6866" />
      <path
         d="m 2661.22,680.27 c -39.13,84.371 -124.51,138.902 -217.52,138.902 -34.87,0 -68.72,-7.5 -100.58,-22.274 -119.88,-55.57 -172.21,-198.269 -116.66,-318.117 39.13,-84.371 124.51,-138.902 217.53,-138.902 34.89,0 68.7,7.48 100.57,22.269 58.07,26.911 102.2,74.821 124.22,134.911 22.02,60.089 19.35,125.152 -7.56,183.211"
         style="fill:#f6f255;fill-opacity:1;fill-rule:nonzero;stroke:none"
         id="path6868" />
      <path
         d="m 3737.82,1784.32 c -23.9,51.55 -76.08,84.86 -132.93,84.86 -21.31,0 -42.03,-4.57 -61.52,-13.6 -35.47,-16.44 -62.42,-45.73 -75.84,-82.44 -13.48,-36.74 -11.82,-76.5 4.63,-111.96 23.87,-51.57 76.06,-84.88 132.91,-84.88 21.3,0 41.98,4.58 61.44,13.6 73.27,33.96 105.27,121.17 71.31,194.42"
         style="fill:#f6f255;fill-opacity:1;fill-rule:nonzero;stroke:none"
         id="path6870" />
    </g>
    <text
       transform="matrix(6.7662917,-2.8613457,3.5780514,8.4611025,1210.916,1649.0428)"
       style="font-size:12.7px;line-height:0.75;font-family:'Flyboy BB';-inkscape-font-specification:'Flyboy BB';white-space:pre;shape-inside:url(#rect12);display:inline;fill:#ffffff;fill-opacity:1;stroke:#d70d1c;stroke-width:0.608633;stroke-miterlimit:4;stroke-dasharray:none;stroke-opacity:1;"
       id="text10"
       xml:space="preserve"><tspan
         x="-73.441406"
         y="-199.13086"><tspan
           style="font-size:12.7px;fill:#ffffff;fill-opacity:1;stroke:#d70d1c;stroke-width:0.608633;stroke-miterlimit:4;stroke-dasharray:none;stroke-opacity:1">SOLAR 
</tspan></tspan></text>
    <text
       xml:space="preserve"
       id="text10-6"
       style="font-size:12.7px;line-height:0.75;font-family:'Flyboy BB';-inkscape-font-specification:'Flyboy BB';white-space:pre;shape-inside:url(#rect12-3);display:inline;fill:#ffffff;fill-opacity:1;stroke:#d70d1c;stroke-width:0.608633;stroke-miterlimit:4;stroke-dasharray:none;stroke-opacity:1;"
       transform="matrix(6.7662917,-2.8613457,3.5780514,8.4611025,1201.4288,1756.6635)"><tspan
         x="-73.441406"
         y="-199.13086"><tspan
           style="font-size:12.7px;fill:#ffffff;fill-opacity:1;stroke:#d70d1c;stroke-width:0.608633;stroke-miterlimit:4;stroke-dasharray:none;stroke-opacity:1">SALVAGE</tspan></tspan></text>
  </g>
</svg>
